<svg data-name="Layer 1" viewBox="0 0 508.33 508.36" xmlns="http://www.w3.org/2000/svg"><path d="M485 29.72c11.45 15.13 16.61 40.21 19.15 70.7 3.36 45.5 4.71 100.1 6 156.52-1.67 57.47-2.35 115.43-6 156.52-2.88 31.54-9 52.66-19.22 65.47-13 12.79-37.94 23.59-73.5 26.15-43.25 3.69-96.61 3.65-155.48 5.1-65.44-1.12-109.82-.64-156.38-5.08-36.32-2.52-60.08-13.19-74.7-26.07-10.83-14.54-14-30-17-66.24-3.75-41.85-4.58-98.56-6-155.54C4 200.57 4.13 143.44 7.9 100.74 10.43 67.05 14.42 44.4 24.65 30 39 17.77 63.48 11.69 100 8.69c50-5.85 102.06-7 155.88-6.87 55.39.09 108.56 1.67 156 6.34 32 2.56 58.48 8.07 73.07 21.56Z" transform="translate(-1.83 -1.82)" fill="#000000" fill-rule="evenodd" class="fill-f48024"></path><path transform="rotate(-59.47 252.78 222.544)" d="M242.72 162.94h25.16v117.82h-25.16z" fill="#ffffff" class="fill-ffffff"></path><path transform="rotate(-74.95 235.7 266.695)" d="M225.21 207.5h25.16v117.82h-25.16z" fill="#ffffff" class="fill-ffffff"></path><path transform="rotate(-84.73 229.314 309.69)" d="M218.64 250.68h25.16V368.5h-25.16z" fill="#ffffff" class="fill-ffffff"></path><path d="M167.9 332.79h117.83v25.17H167.9z" fill="#ffffff" class="fill-ffffff"></path><path d="M327.7 393.71a58.28 58.28 0 0 1-.2 5.88v.1H139s-5.88 0-5.88-.1h-.2V277H153v102.84h154.57V277h20.13Z" transform="translate(-1.83 -1.82)" fill="#ffffff" class="fill-ffffff"></path><path transform="rotate(-34.29 290.26 182.75)" d="M281.54 121.77h25.17V239.6h-25.17z" fill="#ffffff" class="fill-ffffff"></path><path transform="rotate(-9.85 333.018 170.335)" d="M332.04 101.74h25.17v117.82h-25.17z" fill="#ffffff" class="fill-ffffff"></path></svg>